<svg width="626" height="431" viewBox="0 0 626 431" fill="none" xmlns="http://www.w3.org/2000/svg">
<rect width="626" height="431" fill="#E5E5E5"/>
<path id="Vector 1" d="M49 30C50.0718 36.8329 50 43.5327 50 50.4444C50 71.4727 50.3755 92.5547 49.1111 113.556C46.6117 155.071 38.3711 196.015 34.7778 237.444C31.7807 272 30.6418 306.342 30 341" stroke="black" stroke-width="3" stroke-linecap="round" stroke-linejoin="round"/>
<path id="Vector 2" d="M48 32C52.4311 27.1144 57.6945 24.5555 63.3333 21.3333C72.9191 15.8558 83.1843 8.45813 94.2222 6.44445C116.588 2.36417 146.114 -3.31487 165.778 11.1111C196.298 33.5016 203.801 72.0768 205.222 107.333C205.863 123.218 205.62 137.658 199.333 152.667C193.424 166.776 183.685 174.877 171.333 183.111C152.828 195.448 129.687 203.303 107.444 204.778C93.6441 205.693 77.9504 210.591 64.2222 206.778C57.5517 204.925 50.6091 202.62 44.4444 199.444C41.767 198.065 42.2405 194.599 46 195.889C57.7038 199.905 70.1383 203.315 80.6667 210C91.5264 216.896 99.6348 227.596 106.556 238.222C116.343 253.251 124.502 269.121 131.889 285.444C136.811 296.32 141.079 307.357 147.333 317.556C152.113 325.35 160.02 327.945 168.444 330.778C182.978 335.665 198.472 337.773 213.778 336.333C227.647 335.029 237.631 331.251 242.556 317.556C245.884 308.3 247.459 298.266 246.778 288.444C245.522 270.335 232.501 267.146 216.444 268C202.297 268.753 198.077 283.498 198 295.111C197.889 311.71 198.611 327.893 213.333 338.444C217.893 341.712 235.809 351.118 239.389 340.778C240.965 336.225 240.731 330.345 241.444 325.556C242.415 319.038 244.139 312.639 244.944 306.111C249.372 270.25 255.092 234.723 261.611 199.167C266.341 173.369 269.006 147.111 274.333 121.444C274.705 119.656 275 118.185 275 116.389C275 110.106 276.212 104.141 277.556 98C279.762 87.9147 280.66 77.5265 283 67.5C285.978 54.7384 291.054 42.1168 295.389 29.7778C296.75 25.9051 298.145 22.1073 298.944 18.1111C299.74 14.1343 299 26.2222 299 30.2778C299 40.5993 296.015 50.5464 292.5 60.1667C288.527 71.0413 286.069 82.8407 283.556 94.1111C279.666 111.556 274.893 128.564 270.111 145.778C266.272 159.598 264.16 173.085 262.444 187.278C261.283 196.885 258.443 205.941 256.611 215.389C254.556 225.989 255 236.815 255 247.556C255 253.828 259.119 235.707 261.167 229.778C268.452 208.681 274.538 187.145 280.778 165.722C283.52 156.307 285.513 140.248 293.167 132.833C309.607 116.907 323.553 168.536 324.833 175.778C330.603 208.413 335 240.599 335 273.722C335 286.898 333.276 301.645 337 314.444C338.859 320.836 337.747 327.654 338 334.222C338.079 336.284 339.518 335.962 340.778 337.222C343.432 339.876 344.848 343.665 347.222 346.556C371.878 376.571 390.207 295.149 393.111 285.556C398.95 266.268 404.665 246.774 407.222 226.778C407.984 220.825 409.299 228.733 409.444 229.889C411.104 243.075 413.295 256.211 414.556 269.444C415.457 278.915 416.981 287.975 418.556 297.333C419.731 304.318 419.435 311.421 420.778 318.444C423.088 330.531 426.56 341.937 429.556 353.778C430.872 358.981 432.959 369 440.222 369C446.605 369 454.897 358.798 458.222 354C467.377 340.793 473.454 323.066 477.556 307.667C481.038 294.592 485.229 280.474 486.778 267C487.967 256.652 490.278 246.259 493 236.222C493.289 235.158 495 225.857 495 230.444C495 241.63 495 252.815 495 264C495 280.657 494.685 297.347 495.056 314C495.274 323.831 496.473 333.573 498 343.278C498.838 348.604 498.583 356.934 501.167 361.778C506.154 371.13 520.72 371.392 526.667 363.5C539.426 346.565 543.203 321.617 547.444 301.556C554.702 267.227 557.445 233.105 557.889 198.056C558.352 161.505 559.238 125.388 554.444 89.2222C553.405 81.3774 552.715 73.3121 550.389 65.7222C549.063 61.3942 548.404 54.3849 545.556 50.7222C545.074 50.1034 543.974 62.5341 543.944 63.0556C542.731 84.2842 537.726 105.015 535.333 126.111C533.383 143.308 534 160.727 534 178C534 208.604 534.306 239.413 537.333 269.889C541.3 309.821 547.157 351.155 558.5 389.722C559.481 393.058 562.436 399.558 561.944 403C561.379 406.961 543.381 405.112 541.667 405.167C494.767 406.671 448.059 408 401.111 408C349.037 408 296.758 409.247 244.722 406.833C219.757 405.676 194.934 403.484 169.944 402.889C141.347 402.208 112.871 399.598 84.3333 398.056C53.3245 396.379 27.5062 414.425 2 429" stroke="black" stroke-width="3" stroke-linecap="round" stroke-linejoin="round"/>
<path id="Vector 3" d="M584 403C587.566 399.546 586.851 399.638 590 402" stroke="black" stroke-width="3" stroke-linecap="round" stroke-linejoin="round"/>
<path id="Vector 4" d="M624 399C623.056 401.418 622.088 403.825 621 406" stroke="black" stroke-width="3" stroke-linecap="round" stroke-linejoin="round"/>
</svg>
